<?xml version="1.0" encoding="UTF-8"?>
<svg xmlns="http://www.w3.org/2000/svg" viewBox="0 0 595.28 841.89" preserveAspectRatio="xMidYMid meet">
  <path fill="#fff" stroke="none" d="M311.74,372.09c-25.06.32-46.58-10.93-60.17-35.38s-18.7-60.1-24.43-68.97c-3.73-5.77-11.45-9.48-22.9-11.9-17.53-3.7-27.8.7-33.34-21.12-.68-2.67-2.07-8.39-.94-15.15,1.65-9.84,9.59-11.01,12.82-22.94,2.77-10.24-1.81-13.87,9.19-24.89,7.04-7.05,27.55-7.94,35.57,5.17,1.42,2.32,5.67,6.61,7.6,6.47,3.51-.26,4.48-8.71-2.2-18.18-5.38-7.64-6-21.63,6.55-31.06,15.57-11.71,19.98,2.22,29.76-.52,15.03-4.22,27.6-.26,36.31,11.26,6.44,8.52-.15,22.46,9.73,23.84,10.29,1.44,5.79-17.97,20.48-27.24,12.27-7.75,30.89-12.15,45.01-4.49,8.75,4.75,14.68-2.04,23.85,10.69,6.11,8.47,5.28,20.63.76,26.42s-15.77,14.68-12.02,18.46c4.2,4.24,8.09-5.99,10.24-8.38,8.71-9.69,24.45-3.34,31.15,2.12,6.27,5.11,17.24,13.08,20.57,38.75,2.64,20.34-4.35,26.98-10.46,33.03-14.94,14.8-33.04,2.01-50.96,14.96-22.94,16.57-10.38,54.67-36.45,81.57-15.54,16.04-33.98,17.35-45.73,17.5Z"/>
</svg>
