<?xml version="1.0" encoding="UTF-8"?>
<svg id="Layer_2" data-name="Layer 2" xmlns="http://www.w3.org/2000/svg" viewBox="0 0 254.45 246.34">
  <defs>
    <style>
      .cls-1 {
        fill: #fff;
      }
    </style>
  </defs>
  <g id="Layer_1-2" data-name="Layer 1">
    <path class="cls-1" d="M174.57,171.86c3.62-1.96,6.49,4.08,17.19,8.74,14.1,6.14,27.23,2.89,37.86-1.94,6-2.73,9.71-8.68,13.49-15.5,6.93-12.5,8.67-23.52,10.33-37.63,2.36-20.03-.05-29.78-.76-32.45-1.86-6.97-4.04-14.04-10.47-17.8-1.91-1.11-6.46-4.14-25.51-.11-8.11,1.72-12.91-.15-14.86-2.6-3.37-4.22,9.01-9.26,14.58-25.15,2.93-8.35-2.06-21.3-6.92-28.63-5.84-8.81-19.63-14.05-30.45-14.47-10.78-.43-21.53-6.71-37.65-3.32-39.7,8.35-43.15,15.57-48.13,23.44-5.15,8.14-3.54,18.97-2.99,22.69,1.18,7.91,5.3,14.15,7.44,19.61,1.27,3.25.39,5.67-4.13,6.93-5.94,1.66-10.77-9.95-16.6-14.99-13.04-11.27-23.47-10.07-31.79-7.54-9.41,2.87-23.54,12.17-34.65,31.95C1.54,99.14.64,113.3.23,116.33c-1.17,8.59,2.15,33.34,8.76,42.4,6.71,9.19,12.82,13.65,19.76,16.06,18,6.24,27.43-13.78,36.14-10.74,3.59,1.25,1.58,6.86-5,12.99-5.45,5.08-21.61,18.1-16.91,31.18,5.19,14.46,15.53,32.04,48.14,36.65,27.9,3.94,51.44.48,68.22-16.48,14.27-14.43,16.59-27.92,16.1-37.77-.5-9.95-4.61-16.73-.84-18.77h-.03Z"/>
  </g>
</svg>