<?xml version="1.0" encoding="UTF-8"?>
<svg xmlns="http://www.w3.org/2000/svg" version="1.1" viewBox="0 0 595.28 841.89">
  <!-- Generator: Adobe Illustrator 30.3.0, SVG Export Plug-In . SVG Version: 2.1.3 Build 182)  -->
  <defs>
    <style>
      .st0 {
        fill: none;
      }

      .st0, .st1 {
        stroke: #231916;
        stroke-miterlimit: 10;
      }

      .st1 {
        fill: #fff;
      }

      .st2 {
        display: none;
      }
    </style>
  </defs>
  <g id="hua_1" class="st2">
    <path class="st1" d="M236.52,576.31"/>
    <path id="hua" class="st0" d="M74.02,582.96c2.1-6.23-24.94-15.46-24.78-30.98.05-5.07,3.21-8.76,9.52-15.94,6.34-7.21,15.81-16.01,35.4-26.91,18.49-10.29,27.96-15.42,38.72-14.46,2.86.26,14.61,1.47,23.93,10.33,15.18,14.41,11.32,37.07,17.35,37.67,5.16.52,6.59-16.34,21.71-25.28.86-.51,8.09-4.68,17.04-5.16,27.02-1.45,48.5,31.95,56.67,52.61,3.9,9.86,7,20.26,2.71,30.52-5.97,14.28-27.33,14.54-28.4,26.33-.42,4.69,2.38,8.96,3.61,10.84,4.07,6.21,9.06,6.78,14.97,11.36,0,0,8.66,6.71,12.39,18.07,4.54,13.81-2.63,27.18-6.87,35.11-3.87,7.23-15.84,29.58-38.56,32.53-2.42.31-16.31,2.11-26.85-6.2-4.96-3.91-4.7-10.65-12.91-18.41-1.79-1.69-3.93-2.61-5.67-1.59-1.59.93-2.18,2.46-1.56,6.58,0,0,2.59,12.34-1.55,22.72-5.57,13.97-27.7,18.65-40.27,19.1-24.5.89-51.32-12.85-57.31-32.01-1.27-4.05-3.27-10.49-1.03-17.55,2.89-9.11,10.7-12.57,9.49-17.64-.49-2.08-1.77-4.81-8.96-4.23-4.35.35-13.07,2.79-23.1.66-17.21-3.65-25.02-20.44-27.51-25.77-5.75-12.34-4.99-23.4-4.13-35.94,1.01-14.78,1.52-22.16,6.83-27.57,12.17-12.37,37.09-2.76,39.12-8.78Z"/>
    <path class="st1" d="M67.34,702.88"/>
    <path class="st1" d="M36.9,741.41"/>
    <path class="st1" d="M145.79,572.47"/>
  </g>
  <g id="hua_2" class="st2">
    <path class="st1" d="M477.4,210.59"/>
    <path class="st1" d="M441.07,177.82"/>
    <path class="st1" d="M434.72,225.24"/>
    <path class="st1" d="M415.74,208.32"/>
    <path class="st1" d="M587.06,271.94"/>
    <path class="st1" d="M457.03,332.85"/>
    <path class="st1" d="M536.4,220.27"/>
    <path class="st0" d="M403.96,357.37c-25.06.32-46.58-10.93-60.17-35.38s-18.7-60.1-24.43-68.97c-3.73-5.77-11.45-9.48-22.9-11.9-17.53-3.7-27.8.7-33.34-21.12-.68-2.67-2.07-8.39-.94-15.15,1.65-9.84,9.59-11.01,12.82-22.94,2.77-10.24-1.81-13.87,9.19-24.89,7.04-7.05,27.55-7.94,35.57,5.17,1.42,2.32,5.67,6.61,7.6,6.47,3.51-.26,4.48-8.71-2.2-18.18-5.38-7.64-6-21.63,6.55-31.06,15.57-11.71,19.98,2.22,29.76-.52,15.03-4.22,27.6-.26,36.31,11.26,6.44,8.52-.15,22.46,9.73,23.84,10.29,1.44,5.79-17.97,20.48-27.24,12.27-7.75,30.89-12.15,45.01-4.49,8.75,4.75,14.68-2.04,23.85,10.69,6.11,8.47,5.28,20.63.76,26.42s-15.77,14.68-12.02,18.46c4.2,4.24,8.09-5.99,10.24-8.38,8.71-9.69,24.45-3.34,31.15,2.12,6.27,5.11,17.24,13.08,20.57,38.75,2.64,20.34-4.35,26.98-10.46,33.03-14.94,14.8-33.04,2.01-50.96,14.96-22.94,16.57-10.38,54.67-36.45,81.57-15.54,16.04-33.98,17.35-45.73,17.5Z"/>
    <path class="st1" d="M544.44,340.25"/>
  </g>
  <g id="hua_3">
    <path class="st1" d="M332.88,256.33"/>
    <path class="st0" d="M339.62,328.09c3.62-1.96,6.49,4.08,17.19,8.74,14.1,6.14,27.23,2.89,37.86-1.94,6-2.73,9.71-8.68,13.49-15.5,6.93-12.5,8.67-23.52,10.33-37.63,2.36-20.03-.05-29.78-.76-32.45-1.86-6.97-4.04-14.04-10.47-17.8-1.91-1.11-6.46-4.14-25.51-.11-8.11,1.72-12.91-.15-14.86-2.6-3.37-4.22,9.01-9.26,14.58-25.15,2.93-8.35-2.06-21.3-6.92-28.63-5.84-8.81-19.63-14.05-30.45-14.47-10.78-.43-21.53-6.71-37.65-3.32-39.7,8.35-43.15,15.57-48.13,23.44-5.15,8.14-3.54,18.97-2.99,22.69,1.18,7.91,5.3,14.15,7.44,19.61,1.27,3.25.39,5.67-4.13,6.93-5.94,1.66-10.77-9.95-16.6-14.99-13.04-11.27-23.47-10.07-31.79-7.54-9.41,2.87-23.54,12.17-34.65,31.95-9.01,16.05-9.91,30.21-10.32,33.24-1.17,8.59,2.15,33.34,8.76,42.4,6.71,9.19,12.82,13.65,19.76,16.06,18,6.24,27.43-13.78,36.14-10.74,3.59,1.25,1.58,6.86-5,12.99-5.45,5.08-21.61,18.1-16.91,31.18,5.19,14.46,15.53,32.04,48.14,36.65,27.9,3.94,51.44.48,68.22-16.48,14.27-14.43,16.59-27.92,16.1-37.77-.5-9.95-4.61-16.73-.84-18.77Z"/>
    <path class="st1" d="M13.67,181.55"/>
    <path class="st1" d="M125.33,612.13"/>
  </g>
  <g id="hua4" class="st2">
    <path class="st0" d="M208.29,391.2c-32.66-55.34-11.97-120.9-9.04-131.85,4.39-16.47,16.68-27.63,29.02-27.4,11.39.21,17.87,4.03,21.87,13.49,3.99,9.42,4.75,16.72,12,15.6,8.67-1.35,5.36-46.69,34.36-48.05,32.07-1.5,29.49,40.44,39.77,41.52,10.69,1.13,8.22-11.79,18.44-23.93,8.85-10.52,24.82-12.58,37.24-1.64,14.19,12.5,55.66,108.39,2.78,174.94-23.06,29.03-58.1,43.89-96.82,40.99-36.93-2.77-72.28-24.29-89.62-53.66Z"/>
  </g>
</svg>