<?xml version="1.0" encoding="UTF-8"?>
<svg xmlns="http://www.w3.org/2000/svg" version="1.1" viewBox="0 0 595.28 841.89">
  <!-- Generator: Adobe Illustrator 30.3.0, SVG Export Plug-In . SVG Version: 2.1.3 Build 182)  -->
  <defs>
    <style>
      .st0 {
        fill: none;
      }

      .st0, .st1 {
        stroke: #231916;
        stroke-miterlimit: 10;
      }

      .st1 {
        fill: #fff;
      }
    </style>
  </defs>
  <g id="hua_1">
    <path class="st1" d="M234.91,510.2"/>
    <path id="hua" class="st0" d="M81.5,516.49c1.99-5.88-23.55-14.6-23.4-29.25.05-4.78,3.03-8.27,8.99-15.05,5.99-6.81,14.93-15.12,33.42-25.41,17.46-9.72,26.4-14.56,36.56-13.65,2.7.24,13.79,1.39,22.59,9.75,14.33,13.61,10.69,35,16.38,35.57,4.87.49,6.22-15.43,20.49-23.87.81-.48,7.64-4.42,16.09-4.87,25.51-1.36,45.8,30.17,53.5,49.67,3.68,9.31,6.61,19.13,2.56,28.82-5.64,13.49-25.81,13.73-26.81,24.86-.4,4.42,2.25,8.46,3.41,10.24,3.84,5.86,8.56,6.4,14.14,10.72,0,0,8.17,6.33,11.7,17.06,4.28,13.03-2.48,25.67-6.49,33.15-3.65,6.82-14.96,27.93-36.41,30.71-2.28.3-15.4,2-25.35-5.85-4.68-3.69-4.43-10.05-12.19-17.38-1.69-1.59-3.71-2.47-5.35-1.5-1.5.88-2.06,2.33-1.47,6.21,0,0,2.45,11.65-1.46,21.45-5.26,13.19-26.15,17.61-38.02,18.04-23.13.84-48.45-12.13-54.11-30.22-1.2-3.83-3.09-9.91-.97-16.57,2.72-8.6,10.1-11.87,8.96-16.66-.47-1.96-1.67-4.54-8.46-4-4.11.33-12.34,2.63-21.81.62-16.25-3.45-23.63-19.29-25.97-24.33-5.43-11.65-4.71-22.09-3.9-33.93.96-13.95,1.43-20.93,6.45-26.03,11.49-11.68,35.02-2.6,36.93-8.29Z"/>
    <path class="st1" d="M67.34,702.88"/>
    <path class="st1" d="M36.9,741.41"/>
    <path class="st1" d="M149.26,506.58"/>
  </g>
  <g id="hua_2">
    <path class="st1" d="M477.4,210.59"/>
    <path class="st1" d="M441.07,177.82"/>
    <path class="st1" d="M434.72,225.24"/>
    <path class="st1" d="M415.74,208.32"/>
    <path class="st1" d="M587.06,271.94"/>
    <path class="st1" d="M457.03,332.85"/>
    <path class="st1" d="M536.4,220.27"/>
    <path class="st0" d="M431.9,388.5c-23.66.3-43.98-10.32-56.81-33.4-13.06-23.48-17.66-56.74-23.06-65.12-3.52-5.45-10.81-8.95-21.62-11.23-16.55-3.5-26.25.66-31.48-19.94-.64-2.52-1.96-7.92-.89-14.3,1.56-9.29,9.06-10.4,12.11-21.66,2.62-9.67-1.71-13.1,8.68-23.5,6.64-6.65,26.01-7.5,33.58,4.88,1.34,2.19,5.35,6.24,7.18,6.11,3.31-.25,4.23-8.22-2.07-17.17-5.08-7.21-5.66-20.42,6.18-29.33,14.7-11.05,18.86,2.1,28.09-.49,14.19-3.99,26.06-.25,34.28,10.64,6.08,8.05-.14,21.2,9.19,22.51,9.72,1.36,5.47-16.96,19.34-25.72,11.58-7.31,29.16-11.47,42.5-4.23,8.26,4.48,13.86-1.92,22.52,10.09,5.77,8,4.99,19.48.72,24.94-4.34,5.56-14.89,13.86-11.35,17.43,3.96,4,7.64-5.65,9.67-7.91,8.22-9.15,23.09-3.16,29.41,2,5.92,4.82,16.28,12.35,19.42,36.59,2.49,19.2-4.11,25.48-9.88,31.19-14.1,13.97-31.2,1.9-48.12,14.12-21.66,15.65-9.8,51.62-34.41,77.02-14.67,15.14-32.08,16.38-43.18,16.52Z"/>
    <path class="st1" d="M544.44,340.25"/>
  </g>
  <g id="hua_3">
    <path class="st1" d="M332.88,256.33"/>
    <path class="st0" d="M181.13,323.63c3.41-1.85,6.12,3.85,16.23,8.25,13.32,5.8,25.71,2.73,35.74-1.83,5.66-2.57,9.17-8.19,12.74-14.64,6.54-11.8,8.19-22.21,9.76-35.52,2.23-18.92-.05-28.12-.72-30.63-1.75-6.58-3.81-13.26-9.88-16.81-1.8-1.05-6.1-3.91-24.09-.1-7.66,1.62-12.19-.14-14.03-2.45-3.18-3.98,8.5-8.74,13.76-23.75,2.76-7.88-1.95-20.11-6.54-27.04-5.51-8.32-18.53-13.26-28.75-13.66-10.18-.4-20.33-6.34-35.55-3.14-37.48,7.88-40.74,14.7-45.44,22.13-4.86,7.68-3.34,17.91-2.82,21.42,1.11,7.47,5.01,13.36,7.02,18.51,1.2,3.07.37,5.35-3.9,6.54-5.61,1.56-10.17-9.39-15.67-14.15-12.32-10.64-22.16-9.51-30.02-7.11-8.89,2.71-22.23,11.49-32.72,30.17-8.51,15.15-9.36,28.53-9.75,31.38-1.1,8.11,2.03,31.48,8.27,40.03,6.33,8.68,12.1,12.89,18.66,15.16,16.99,5.89,25.9-13.01,34.12-10.14,3.39,1.18,1.5,6.48-4.72,12.27-5.15,4.79-20.4,17.09-15.97,29.44,4.9,13.65,14.66,30.25,45.45,34.6,26.34,3.72,48.57.46,64.41-15.56,13.47-13.62,15.66-26.36,15.2-35.66s-4.35-15.8-.8-17.72Z"/>
    <path class="st1" d="M13.67,181.55"/>
    <path class="st1" d="M125.33,612.13"/>
  </g>
  <g id="hua4">
    <path class="st0" d="M348.44,623.14c-30.84-52.25-11.3-114.15-8.54-124.49,4.15-15.55,15.75-26.09,27.4-25.87,10.75.2,16.87,3.81,20.65,12.73,3.77,8.89,4.48,15.79,11.33,14.72,8.19-1.27,5.06-44.08,32.44-45.37,30.28-1.42,27.84,38.18,37.54,39.2,10.09,1.06,7.76-11.13,17.41-22.59,8.36-9.93,23.43-11.88,35.16-1.55,13.4,11.8,52.55,102.33,2.63,165.17-21.77,27.41-54.85,41.44-91.41,38.7-34.86-2.61-68.25-22.94-84.61-50.67Z"/>
  </g>
</svg>